<?xml version="1.0" standalone="no"?>
<!DOCTYPE svg PUBLIC "-//W3C//DTD SVG 20010904//EN"
 "http://www.w3.org/TR/2001/REC-SVG-20010904/DTD/svg10.dtd">
<svg version="1.0" xmlns="http://www.w3.org/2000/svg"
 width="70.000000pt" height="70.000000pt" viewBox="0 0 70.000000 70.000000"
 preserveAspectRatio="xMidYMid meet">
<metadata>
Created by potrace 1.11, written by Peter Selinger 2001-2013
</metadata>
<g transform="translate(0.000000,70.000000) scale(0.100000,-0.100000)"
fill="#000000" stroke="none">
<path d="M20 592 c-12 -13 -15 -53 -16 -210 0 -135 3 -195 11 -202 20 -16 68
-16 73 0 11 31 60 70 90 70 33 0 92 -42 92 -66 0 -11 16 -14 65 -14 36 0 66 3
66 8 1 4 2 95 3 204 2 150 -1 201 -11 215 -12 15 -15 16 -23 3 -7 -10 -10 -11
-10 -2 0 6 -5 12 -11 12 -5 0 -7 -4 -4 -10 3 -5 1 -10 -4 -10 -6 0 -11 5 -11
10 0 14 -27 12 -33 -2 -4 -10 -6 -10 -6 0 -1 6 -8 12 -16 12 -8 0 -15 -6 -15
-12 0 -9 -4 -8 -10 2 -9 13 -11 13 -20 0 -6 -10 -10 -11 -10 -2 0 6 -5 12 -11
12 -5 0 -7 -6 -3 -12 5 -10 4 -10 -6 -1 -11 10 -17 10 -29 0 -12 -9 -13 -9 -7
1 4 7 1 12 -9 12 -9 0 -13 -4 -10 -10 3 -5 1 -10 -4 -10 -6 0 -11 5 -11 11 0
8 -6 7 -17 -2 -11 -10 -14 -10 -9 -1 4 6 3 12 -1 12 -5 0 -15 -6 -22 -12 -11
-10 -13 -10 -7 0 4 6 3 12 -3 12 -5 0 -12 -6 -14 -12 -4 -10 -6 -10 -6 0 -1
17 -13 15 -31 -6z"/>
<path d="M442 477 c-15 -18 -11 -299 5 -304 6 -2 14 5 17 15 18 57 106 78 150
37 14 -13 26 -31 26 -40 0 -12 8 -15 28 -13 l27 3 1 90 c0 90 0 90 -40 145
-22 30 -47 60 -55 66 -21 16 -146 17 -159 1z m134 -46 c10 -1 74 -83 74 -96 0
-4 -27 -5 -60 -3 -33 1 -60 -1 -60 -5 0 -5 -4 -6 -9 -2 -12 7 -10 98 2 106 5
4 17 5 26 4 9 -2 21 -4 27 -4z"/>
<path d="M134 193 c-19 -20 -21 -29 -13 -51 5 -14 20 -33 32 -41 23 -16 59
-23 51 -9 -3 4 2 11 10 14 8 3 19 16 23 27 22 67 -55 112 -103 60z"/>
<path d="M509 197 c-33 -36 -16 -92 33 -110 16 -6 67 32 69 51 0 4 2 15 4 25
2 9 -1 17 -6 17 -6 0 -8 4 -5 9 3 5 -2 12 -12 16 -33 15 -64 12 -83 -8z"/>
</g>
</svg>
